<?xml version="1.0" standalone="no"?>
<!DOCTYPE svg PUBLIC "-//W3C//DTD SVG 20010904//EN"
 "http://www.w3.org/TR/2001/REC-SVG-20010904/DTD/svg10.dtd">
<svg version="1.0" xmlns="http://www.w3.org/2000/svg"
 width="900.000000pt" height="558.000000pt" viewBox="0 0 900.000000 558.000000"
 preserveAspectRatio="xMidYMid meet">
<metadata>
Created by potrace 1.10, written by Peter Selinger 2001-2011
</metadata>
<g transform="translate(0.000000,558.000000) scale(0.100000,-0.100000)"
fill="#ff0000" stroke="none">
<path d="M4345 4370 c-116 -7 -170 -19 -315 -68 -479 -161 -828 -566 -922
-1072 -26 -136 -11 -528 21 -590 5 -9 12 -35 16 -58 4 -23 11 -44 16 -48 5 -3
9 -12 9 -20 0 -28 95 -228 117 -246 7 -6 13 -15 13 -21 0 -18 110 -158 184
-236 143 -148 374 -294 556 -350 41 -12 86 -27 100 -31 135 -46 579 -46 685 0
11 5 34 11 50 15 48 10 195 67 255 98 59 31 179 109 219 142 180 146 301 300
393 495 61 130 68 148 68 168 0 12 4 23 9 27 6 3 13 27 17 53 3 26 11 55 15
64 5 10 14 78 20 151 20 239 -12 471 -87 644 -8 17 -14 34 -14 37 0 12 -67
143 -95 186 -104 159 -248 317 -362 397 -41 29 -212 133 -219 133 -6 0 -92 37
-114 49 -9 5 -31 12 -50 16 -19 4 -41 11 -50 16 -68 37 -336 61 -535 49z m163
-50 c28 -27 28 -44 -3 -84 -14 -18 -25 -35 -25 -38 0 -3 28 -13 62 -23 34 -9
79 -28 100 -41 39 -25 98 -97 98 -120 0 -17 47 -49 84 -58 49 -12 157 -65 231
-114 63 -42 200 -169 250 -232 52 -65 136 -224 151 -286 4 -16 10 -33 14 -39
8 -10 25 -87 40 -180 12 -69 11 -200 -1 -260 -25 -122 -25 -120 25 -177 46
-52 106 -160 106 -189 0 -8 4 -19 10 -25 5 -5 13 -37 16 -70 5 -49 3 -63 -10
-77 -30 -29 -96 -15 -96 21 0 9 -9 28 -19 41 l-18 24 -19 -31 c-40 -68 -175
-130 -253 -117 -32 5 -43 1 -96 -41 -107 -84 -279 -184 -315 -184 -9 0 -20 -4
-25 -9 -10 -9 -72 -25 -165 -42 -66 -13 -353 -6 -395 9 -16 6 -60 21 -98 32
-37 12 -79 28 -95 36 -15 7 -30 14 -34 14 -18 0 -159 93 -212 140 -40 35 -64
49 -75 44 -30 -12 -205 -16 -256 -6 -143 30 -175 46 -175 86 0 43 39 68 94 59
41 -6 41 -5 21 44 -33 78 -15 189 44 277 14 21 17 35 10 47 -17 32 -28 225
-18 335 9 100 19 146 57 254 19 55 95 204 113 224 8 8 25 29 39 48 113 150
300 284 492 353 32 11 49 24 53 38 32 110 118 239 203 304 51 39 61 40 90 13z"/>
<path d="M4170 3810 c-8 -5 -41 -21 -72 -35 -119 -54 -254 -168 -326 -275 -20
-30 -39 -57 -42 -60 -10 -10 -69 -136 -75 -160 -3 -14 -10 -34 -15 -45 -16
-39 -40 -194 -40 -260 0 -37 7 -91 16 -121 15 -51 16 -53 44 -47 53 10 157
-26 208 -72 70 -63 96 -122 95 -216 0 -69 -4 -83 -32 -128 -17 -28 -31 -56
-31 -61 0 -25 172 -131 265 -164 28 -10 59 -22 70 -27 40 -17 162 -33 250 -33
147 0 283 34 410 101 67 36 165 105 165 117 0 7 -13 40 -30 72 -24 47 -30 72
-30 122 0 34 4 70 10 80 5 9 17 34 26 55 38 87 172 164 270 155 36 -3 38 -1
47 32 15 57 3 307 -17 370 -88 273 -250 465 -486 572 -19 9 -47 22 -62 29 -32
14 -31 15 -61 -41 -59 -112 -197 -172 -317 -136 -81 24 -146 78 -178 149 -17
37 -33 44 -62 27z m408 -469 c9 -5 40 -19 67 -31 56 -25 138 -99 161 -145 38
-74 57 -148 51 -200 -6 -57 -37 -155 -49 -155 -5 0 -8 -7 -8 -15 0 -24 -94
-110 -155 -141 -54 -27 -67 -29 -165 -29 -97 0 -112 3 -162 28 -74 37 -131 96
-169 174 -30 62 -31 68 -27 166 6 110 18 147 78 222 37 47 135 115 167 115 12
0 25 5 28 10 8 12 159 13 183 1z"/>
<path d="M3122 1197 c-31 -28 -75 -69 -97 -89 -59 -56 -65 -52 -65 48 l0 85
-37 -3 -36 -3 2 -150 c1 -87 7 -155 13 -162 16 -19 46 -16 53 6 7 24 44 31
167 31 l99 0 -3 28 c-3 26 -5 27 -75 30 -98 4 -97 19 7 113 64 58 77 75 70 89
-19 36 -40 31 -98 -23z"/>
<path d="M3303 1243 c-9 -3 -13 -36 -13 -113 l0 -109 153 -3 c83 -2 156 0 161
4 9 7 12 200 2 216 -3 5 -17 7 -31 4 -24 -4 -25 -8 -25 -72 0 -42 -5 -71 -12
-78 -21 -16 -144 -25 -167 -12 -18 9 -21 20 -21 84 0 58 -3 75 -16 80 -9 3
-16 6 -17 5 -1 0 -8 -3 -14 -6z"/>
<path d="M6505 1241 c-19 -8 -20 -16 -17 -114 l3 -106 142 -3 c207 -4 187 -16
187 112 l0 108 -27 5 c-16 3 -31 3 -35 0 -5 -2 -8 -34 -8 -71 0 -37 -4 -72 -8
-78 -9 -14 -153 -26 -172 -14 -11 7 -15 29 -15 87 -1 82 -7 91 -50 74z"/>
<path d="M1742 1079 l3 -162 155 2 c111 2 159 6 168 15 11 10 12 44 6 160 l-7
146 -164 0 -163 0 2 -161z m262 65 c9 -23 7 -127 -2 -142 -6 -9 -33 -12 -98
-10 l-89 3 -3 69 c-2 38 -1 75 2 83 8 21 182 19 190 -3z"/>
<path d="M2300 1200 l0 -40 -85 0 -85 0 0 -40 0 -40 79 0 c95 0 103 -7 100
-88 -3 -70 3 -81 39 -79 27 2 27 4 32 82 5 80 5 80 35 85 25 4 30 10 33 38 3
30 -4 38 -32 33 -18 -4 -36 23 -36 55 0 33 -1 34 -40 34 -40 0 -40 0 -40 -40z"/>
<path d="M2517 1233 c-4 -3 -7 -73 -7 -153 0 -119 3 -150 15 -160 20 -17 43 2
47 38 3 26 5 27 78 30 99 4 118 -1 122 -36 2 -21 8 -27 28 -27 l25 0 3 158 3
157 -154 0 c-85 0 -157 -3 -160 -7z m233 -62 c12 -23 13 -71 2 -88 -4 -6 -42
-12 -92 -15 -84 -3 -84 -3 -94 25 -14 37 3 79 34 88 14 4 51 7 82 8 47 1 59
-2 68 -18z"/>
<path d="M3780 1205 l0 -34 133 -3 132 -3 5 -40 c5 -37 8 -40 35 -40 l30 0 5
73 c3 41 3 76 1 78 -2 2 -80 4 -173 4 l-168 0 0 -35z"/>
<path d="M4181 1226 c-13 -16 -15 -274 -1 -295 4 -7 18 -11 31 -9 18 2 25 11
29 33 l5 30 84 3 c91 3 108 -4 113 -46 4 -37 42 -38 46 -2 2 14 8 35 14 47 6
13 7 35 3 55 -4 18 -9 69 -10 113 l-3 80 -150 3 c-119 2 -151 0 -161 -12z
m233 -49 c13 -10 17 -24 14 -57 l-3 -45 -75 -7 c-106 -10 -112 -7 -108 55 3
49 5 52 33 58 53 11 121 9 139 -4z"/>
<path d="M4730 1200 l0 -40 -85 0 -85 0 0 -40 0 -40 79 0 c96 0 103 -6 100
-90 -3 -69 4 -81 43 -73 26 5 27 7 30 82 3 76 3 76 33 81 25 4 30 10 33 38 2
21 -1 32 -10 33 -7 1 -17 2 -23 4 -5 1 -16 3 -22 3 -8 1 -13 17 -13 42 0 40 0
40 -40 40 -40 0 -40 0 -40 -40z"/>
<path d="M4944 1227 c-2 -7 -3 -77 -2 -156 3 -123 6 -145 20 -155 21 -13 29
-6 37 36 l7 33 83 3 c91 3 111 -5 111 -45 0 -21 4 -24 28 -21 l27 3 3 158 3
157 -156 0 c-118 0 -157 -3 -161 -13z m236 -56 c12 -23 13 -71 2 -88 -4 -6
-42 -12 -92 -15 -83 -3 -84 -3 -94 23 -12 36 0 78 27 89 12 5 50 9 84 9 52 1
64 -2 73 -18z"/>
<path d="M5317 1133 l1 -108 166 -3 166 -2 0 30 0 30 -108 0 c-71 0 -112 4
-120 12 -7 7 -12 40 -12 80 l0 68 -47 0 -48 0 2 -107z"/>
<path d="M5702 1083 l3 -158 165 0 165 0 3 158 3 157 -171 0 -171 0 3 -157z
m266 2 c1 -38 -1 -75 -6 -82 -12 -18 -172 -20 -183 -2 -10 17 -12 143 -2 153
4 4 48 5 98 4 l90 -3 3 -70z"/>
<path d="M6095 1198 c3 -24 10 -97 13 -163 l7 -120 157 -2 157 -2 3 85 c2 46
2 89 0 94 -5 13 -118 13 -141 0 -14 -7 -24 -3 -45 19 -16 16 -26 37 -24 48 3
16 15 18 105 21 93 2 101 4 106 24 4 12 4 25 1 30 -3 4 -82 8 -176 8 l-170 0
7 -42z m149 -150 c25 -29 46 -56 46 -59 0 -10 -62 -18 -93 -12 -26 5 -27 8
-27 64 0 75 13 76 74 7z m126 -28 c0 -13 -11 -13 -30 0 -12 8 -11 10 8 10 12
0 22 -4 22 -10z"/>
<path d="M6870 1205 l0 -35 170 0 170 0 0 35 0 35 -170 0 -170 0 0 -35z"/>
<path d="M6874 1086 c-3 -8 -4 -22 -2 -32 3 -15 19 -17 163 -15 88 1 164 6
168 11 5 4 7 16 5 26 -3 17 -17 19 -166 22 -135 2 -163 0 -168 -12z"/>
<path d="M3782 988 l3 -73 165 1 165 0 3 38 c3 38 3 38 -25 31 -15 -5 -75 -9
-133 -9 l-105 -1 -3 43 c-3 41 -4 42 -38 42 l-35 0 3 -72z"/>
<path d="M3298 969 c-5 -4 -8 -15 -6 -25 3 -17 17 -19 158 -24 85 -3 156 -5
158 -4 2 1 4 14 5 30 l2 29 -153 0 c-85 0 -158 -3 -164 -6z"/>
<path d="M6595 972 c-112 -3 -119 -5 -105 -32 10 -19 19 -20 168 -18 154 3
157 3 160 26 2 15 -2 22 -15 23 -38 4 -122 4 -208 1z"/>
<path d="M5310 951 c0 -34 21 -39 175 -36 83 1 153 3 158 4 4 0 7 12 7 26 l0
25 -170 0 c-160 0 -170 -1 -170 -19z"/>
<path d="M6870 940 l0 -30 168 2 167 3 3 28 3 27 -170 0 -171 0 0 -30z"/>
</g>
</svg>
